<svg width="35" height="35" viewBox="0 0 35 35" fill="none" xmlns="http://www.w3.org/2000/svg">
<path d="M17.9625 13.9585H16.7923C15.4564 13.9585 14.7892 13.9585 14.3741 14.3736C13.959 14.7887 13.959 15.4559 13.959 16.7918V28.8335C13.959 30.1694 13.959 30.8367 14.3741 31.2517C14.7892 31.6668 15.4564 31.6668 16.7923 31.6668H17.5007C18.8366 31.6668 19.5038 31.6668 19.9189 31.2517C20.334 30.8367 20.334 30.1694 20.334 28.8335V23.8752C20.334 21.5277 21.082 19.6252 23.292 19.6252C24.397 19.6252 25.2923 20.5772 25.2923 21.7502V28.1252C25.2923 29.4611 25.2923 30.1283 25.7074 30.5434C26.1225 30.9585 26.7897 30.9585 28.1257 30.9585H28.8326C30.1671 30.9585 30.8357 30.9585 31.2508 30.5434C31.6645 30.1283 31.6659 29.4611 31.6659 28.1266L31.6673 20.3335C31.6673 16.8117 28.3183 13.9585 25.0047 13.9585C23.1177 13.9585 21.4347 14.8822 20.334 16.3286C20.334 15.4361 20.334 14.9898 20.1399 14.6583C20.0171 14.4486 19.8425 14.2739 19.6327 14.1512C19.3012 13.9571 18.855 13.9571 17.9625 13.9571M6.87565 13.9585H6.16732C4.8314 13.9585 4.16415 13.9585 3.74907 14.3736C3.33398 14.7887 3.33398 15.4559 3.33398 16.7918V28.8335C3.33398 30.1694 3.33398 30.8367 3.74907 31.2517C4.16415 31.6668 4.8314 31.6668 6.16732 31.6668H6.87565C8.21157 31.6668 8.87882 31.6668 9.2939 31.2517C9.70898 30.8367 9.70898 30.1694 9.70898 28.8335V16.7918C9.70898 15.4559 9.70898 14.7887 9.2939 14.3736C8.87882 13.9585 8.21157 13.9585 6.87565 13.9585ZM9.70898 6.521C9.70898 7.36637 9.37316 8.17713 8.77539 8.7749C8.17761 9.37267 7.36686 9.7085 6.52148 9.7085C5.67611 9.7085 4.86535 9.37267 4.26758 8.7749C3.66981 8.17713 3.33398 7.36637 3.33398 6.521C3.33398 5.67562 3.66981 4.86487 4.26758 4.26709C4.86535 3.66932 5.67611 3.3335 6.52148 3.3335C7.36686 3.3335 8.17761 3.66932 8.77539 4.26709C9.37316 4.86487 9.70898 5.67562 9.70898 6.521Z" stroke="white" stroke-width="2" stroke-linecap="round" stroke-linejoin="round"/>
</svg>
