<svg width="35" height="34" viewBox="0 0 35 34" fill="none" xmlns="http://www.w3.org/2000/svg">
<path d="M30.0335 21.0454L23.7767 18.2418L23.7595 18.2338C23.4346 18.0949 23.0803 18.0391 22.7285 18.0716C22.3767 18.1041 22.0386 18.2237 21.7447 18.4197C21.7101 18.4426 21.6768 18.4674 21.6451 18.4941L18.4124 21.25C16.3645 20.2552 14.2501 18.1568 13.2553 16.1354L16.0152 12.8536C16.0417 12.8204 16.067 12.7872 16.0909 12.7513C16.2827 12.4582 16.3991 12.1222 16.4297 11.7732C16.4602 11.4243 16.4041 11.0732 16.2662 10.7511V10.7352L13.4545 4.46779C13.2722 4.04712 12.9588 3.6967 12.561 3.46882C12.1631 3.24095 11.7023 3.14785 11.2472 3.20341C9.44755 3.44023 7.79564 4.32404 6.6 5.68979C5.40436 7.05554 4.74676 8.80981 4.75001 10.625C4.75001 21.1703 13.3297 29.75 23.875 29.75C25.6902 29.7532 27.4445 29.0956 28.8102 27.9C30.1759 26.7043 31.0598 25.0524 31.2966 23.2528C31.3522 22.7979 31.2593 22.3371 31.0317 21.9393C30.8041 21.5415 30.4539 21.228 30.0335 21.0454ZM23.875 27.625C19.3678 27.6201 15.0467 25.8274 11.8596 22.6404C8.67258 19.4533 6.87993 15.1321 6.87501 10.625C6.87002 9.32805 7.33727 8.07364 8.18951 7.09602C9.04174 6.1184 10.2207 5.48442 11.5062 5.31248C11.5057 5.31777 11.5057 5.32311 11.5062 5.32841L14.2952 11.5706L11.55 14.8564C11.5221 14.8884 11.4968 14.9226 11.4743 14.9586C11.2744 15.2653 11.1572 15.6185 11.1339 15.9838C11.1107 16.3491 11.1822 16.7142 11.3415 17.0438C12.5448 19.5048 15.0244 21.9658 17.512 23.1678C17.8439 23.3256 18.2112 23.3947 18.5778 23.3681C18.9445 23.3416 19.298 23.2204 19.6038 23.0164C19.6379 22.9935 19.6707 22.9687 19.702 22.942L22.9307 20.1875L29.1729 22.9832H29.1875C29.0177 24.2705 28.3846 25.4518 27.4068 26.3062C26.429 27.1605 25.1735 27.6294 23.875 27.625Z" fill="white"/>
</svg>
