<svg width="34" height="35" viewBox="0 0 34 35" fill="none" xmlns="http://www.w3.org/2000/svg">
<path d="M24.5657 8.23516C24.2294 8.23516 23.9007 8.33487 23.6212 8.52167C23.3416 8.70846 23.1237 8.97397 22.9951 9.2846C22.8664 9.59524 22.8327 9.93705 22.8983 10.2668C22.9639 10.5966 23.1258 10.8995 23.3636 11.1372C23.6013 11.375 23.9042 11.5369 24.234 11.6025C24.5638 11.6681 24.9056 11.6344 25.2162 11.5058C25.5268 11.3771 25.7924 11.1592 25.9791 10.8796C26.1659 10.6001 26.2657 10.2714 26.2657 9.93516C26.2657 9.48429 26.0865 9.05189 25.7677 8.73308C25.4489 8.41427 25.0165 8.23516 24.5657 8.23516ZM31.0823 11.6635C31.0548 10.4881 30.8346 9.32515 30.4307 8.221C30.0704 7.27627 29.5098 6.42081 28.7873 5.7135C28.0858 4.98735 27.2284 4.43025 26.2798 4.08433C25.1786 3.66806 24.0144 3.44288 22.8373 3.4185C21.3357 3.3335 20.854 3.3335 17.0007 3.3335C13.1473 3.3335 12.6657 3.3335 11.164 3.4185C9.98695 3.44288 8.82272 3.66806 7.72148 4.08433C6.77469 4.43375 5.91797 4.99037 5.21398 5.7135C4.48784 6.415 3.93073 7.27245 3.58482 8.221C3.16855 9.32223 2.94337 10.4865 2.91898 11.6635C2.83398 13.1652 2.83398 13.6468 2.83398 17.5002C2.83398 21.3535 2.83398 21.8352 2.91898 23.3368C2.94337 24.5139 3.16855 25.6781 3.58482 26.7793C3.93073 27.7279 4.48784 28.5853 5.21398 29.2868C5.91797 30.01 6.77469 30.5666 7.72148 30.916C8.82272 31.3323 9.98695 31.5575 11.164 31.5818C12.6657 31.6668 13.1473 31.6668 17.0007 31.6668C20.854 31.6668 21.3357 31.6668 22.8373 31.5818C24.0144 31.5575 25.1786 31.3323 26.2798 30.916C27.2284 30.5701 28.0858 30.013 28.7873 29.2868C29.513 28.5822 30.0741 27.7259 30.4307 26.7793C30.8346 25.6752 31.0548 24.5122 31.0823 23.3368C31.0823 21.8352 31.1673 21.3535 31.1673 17.5002C31.1673 13.6468 31.1673 13.1652 31.0823 11.6635ZM28.5323 23.1668C28.522 24.0661 28.3591 24.9571 28.0507 25.8018C27.8245 26.4184 27.4611 26.9754 26.9882 27.431C26.5287 27.8992 25.9727 28.2618 25.359 28.4935C24.5142 28.802 23.6232 28.9649 22.724 28.9752C21.3073 29.046 20.7832 29.0602 17.0573 29.0602C13.3315 29.0602 12.8073 29.0602 11.3907 28.9752C10.4569 28.9926 9.52716 28.8489 8.64232 28.5502C8.05551 28.3066 7.52507 27.9449 7.08398 27.4877C6.61378 27.0326 6.25501 26.475 6.03565 25.8585C5.68978 25.0016 5.49795 24.0904 5.46898 23.1668C5.46898 21.7502 5.38398 21.226 5.38398 17.5002C5.38398 13.7743 5.38398 13.2502 5.46898 11.8335C5.47533 10.9142 5.64316 10.0031 5.96482 9.14183C6.21422 8.54387 6.59703 8.01085 7.08398 7.5835C7.51439 7.0964 8.04631 6.70955 8.64232 6.45016C9.50585 6.13856 10.416 5.97569 11.334 5.9685C12.7507 5.9685 13.2748 5.8835 17.0007 5.8835C20.7265 5.8835 21.2507 5.8835 22.6673 5.9685C23.5666 5.97881 24.4576 6.14168 25.3023 6.45016C25.9461 6.68909 26.5239 7.07753 26.9882 7.5835C27.4524 8.01867 27.8151 8.5507 28.0507 9.14183C28.3655 10.0045 28.5285 10.9152 28.5323 11.8335C28.6032 13.2502 28.6173 13.7743 28.6173 17.5002C28.6173 21.226 28.6032 21.7502 28.5323 23.1668ZM17.0007 10.2327C15.5639 10.2355 14.1602 10.6641 12.9669 11.4643C11.7736 12.2646 10.8444 13.4006 10.2965 14.7288C9.74858 16.057 9.60668 17.5178 9.88869 18.9266C10.1707 20.3355 10.864 21.6291 11.8809 22.6441C12.8979 23.659 14.1928 24.3498 15.6022 24.629C17.0116 24.9083 18.4721 24.7636 19.7992 24.2131C21.1264 23.6626 22.2606 22.7311 23.0585 21.5363C23.8564 20.3415 24.2823 18.9369 24.2823 17.5002C24.2842 16.5441 24.097 15.597 23.7316 14.7135C23.3661 13.83 22.8296 13.0275 22.1529 12.3521C21.4762 11.6767 20.6726 11.1417 19.7884 10.778C18.9042 10.4143 17.9567 10.2289 17.0007 10.2327ZM17.0007 22.2177C16.0676 22.2177 15.1555 21.941 14.3797 21.4226C13.604 20.9043 12.9993 20.1675 12.6423 19.3055C12.2852 18.4435 12.1918 17.4949 12.3738 16.5798C12.5558 15.6647 13.0051 14.8241 13.6649 14.1644C14.3246 13.5046 15.1652 13.0553 16.0803 12.8733C16.9954 12.6913 17.944 12.7847 18.806 13.1418C19.668 13.4988 20.4047 14.1035 20.9231 14.8793C21.4415 15.655 21.7182 16.5671 21.7182 17.5002C21.7182 18.1197 21.5961 18.7331 21.3591 19.3055C21.122 19.8778 20.7745 20.3979 20.3364 20.8359C19.8984 21.274 19.3783 21.6215 18.806 21.8586C18.2336 22.0956 17.6202 22.2177 17.0007 22.2177Z" fill="white"/>
</svg>
