<svg width="426" height="520" viewBox="0 0 426 520" fill="none" xmlns="http://www.w3.org/2000/svg">
<g opacity="0.7" filter="url(#filter0_b_1_975)">
<rect x="30" y="20" width="281" height="58" rx="29" fill="white"/>
</g>
<path d="M62.97 60V39H81.54V60H77.7V41.34L78.6 42.3H65.91L66.81 41.34V60H62.97ZM95.9215 60.21C94.6215 60.21 93.4315 59.91 92.3515 59.31C91.2915 58.71 90.4415 57.81 89.8015 56.61C89.1815 55.39 88.8715 53.85 88.8715 51.99C88.8715 50.11 89.1715 48.57 89.7715 47.37C90.3915 46.17 91.2315 45.28 92.2915 44.7C93.3515 44.1 94.5615 43.8 95.9215 43.8C97.5015 43.8 98.8915 44.14 100.091 44.82C101.311 45.5 102.271 46.45 102.971 47.67C103.691 48.89 104.051 50.33 104.051 51.99C104.051 53.65 103.691 55.1 102.971 56.34C102.271 57.56 101.311 58.51 100.091 59.19C98.8915 59.87 97.5015 60.21 95.9215 60.21ZM87.0415 65.82V43.98H90.6115V47.76L90.4915 52.02L90.7915 56.28V65.82H87.0415ZM95.5015 57C96.4015 57 97.2015 56.8 97.9015 56.4C98.6215 56 99.1915 55.42 99.6115 54.66C100.031 53.9 100.241 53.01 100.241 51.99C100.241 50.95 100.031 50.06 99.6115 49.32C99.1915 48.56 98.6215 47.98 97.9015 47.58C97.2015 47.18 96.4015 46.98 95.5015 46.98C94.6015 46.98 93.7915 47.18 93.0715 47.58C92.3515 47.98 91.7815 48.56 91.3615 49.32C90.9415 50.06 90.7315 50.95 90.7315 51.99C90.7315 53.01 90.9415 53.9 91.3615 54.66C91.7815 55.42 92.3515 56 93.0715 56.4C93.7915 56.8 94.6015 57 95.5015 57ZM114.924 60.21C113.284 60.21 111.824 59.86 110.544 59.16C109.264 58.44 108.254 57.46 107.514 56.22C106.774 54.98 106.404 53.57 106.404 51.99C106.404 50.39 106.774 48.98 107.514 47.76C108.254 46.52 109.264 45.55 110.544 44.85C111.824 44.15 113.284 43.8 114.924 43.8C116.584 43.8 118.054 44.15 119.334 44.85C120.634 45.55 121.644 46.51 122.364 47.73C123.104 48.95 123.474 50.37 123.474 51.99C123.474 53.57 123.104 54.98 122.364 56.22C121.644 57.46 120.634 58.44 119.334 59.16C118.054 59.86 116.584 60.21 114.924 60.21ZM114.924 57C115.844 57 116.664 56.8 117.384 56.4C118.104 56 118.664 55.42 119.064 54.66C119.484 53.9 119.694 53.01 119.694 51.99C119.694 50.95 119.484 50.06 119.064 49.32C118.664 48.56 118.104 47.98 117.384 47.58C116.664 47.18 115.854 46.98 114.954 46.98C114.034 46.98 113.214 47.18 112.494 47.58C111.794 47.98 111.234 48.56 110.814 49.32C110.394 50.06 110.184 50.95 110.184 51.99C110.184 53.01 110.394 53.9 110.814 54.66C111.234 55.42 111.794 56 112.494 56.4C113.214 56.8 114.024 57 114.924 57ZM127.178 60V43.98H139.478V47.16H130.058L130.928 46.32V60H127.178ZM151.088 60.21C149.788 60.21 148.598 59.91 147.518 59.31C146.458 58.71 145.608 57.81 144.968 56.61C144.348 55.39 144.038 53.85 144.038 51.99C144.038 50.11 144.338 48.57 144.938 47.37C145.558 46.17 146.398 45.28 147.458 44.7C148.518 44.1 149.728 43.8 151.088 43.8C152.668 43.8 154.058 44.14 155.258 44.82C156.478 45.5 157.438 46.45 158.138 47.67C158.858 48.89 159.218 50.33 159.218 51.99C159.218 53.65 158.858 55.1 158.138 56.34C157.438 57.56 156.478 58.51 155.258 59.19C154.058 59.87 152.668 60.21 151.088 60.21ZM142.208 65.82V43.98H145.778V47.76L145.658 52.02L145.958 56.28V65.82H142.208ZM150.668 57C151.568 57 152.368 56.8 153.068 56.4C153.788 56 154.358 55.42 154.778 54.66C155.198 53.9 155.408 53.01 155.408 51.99C155.408 50.95 155.198 50.06 154.778 49.32C154.358 48.56 153.788 47.98 153.068 47.58C152.368 47.18 151.568 46.98 150.668 46.98C149.768 46.98 148.958 47.18 148.238 47.58C147.518 47.98 146.948 48.56 146.528 49.32C146.108 50.06 145.898 50.95 145.898 51.99C145.898 53.01 146.108 53.9 146.528 54.66C146.948 55.42 147.518 56 148.238 56.4C148.958 56.8 149.768 57 150.668 57ZM172.465 60V56.76L172.255 56.07V50.4C172.255 49.3 171.925 48.45 171.265 47.85C170.605 47.23 169.605 46.92 168.265 46.92C167.365 46.92 166.475 47.06 165.595 47.34C164.735 47.62 164.005 48.01 163.405 48.51L161.935 45.78C162.795 45.12 163.815 44.63 164.995 44.31C166.195 43.97 167.435 43.8 168.715 43.8C171.035 43.8 172.825 44.36 174.085 45.48C175.365 46.58 176.005 48.29 176.005 50.61V60H172.465ZM167.425 60.21C166.225 60.21 165.175 60.01 164.275 59.61C163.375 59.19 162.675 58.62 162.175 57.9C161.695 57.16 161.455 56.33 161.455 55.41C161.455 54.51 161.665 53.7 162.085 52.98C162.525 52.26 163.235 51.69 164.215 51.27C165.195 50.85 166.495 50.64 168.115 50.64H172.765V53.13H168.385C167.105 53.13 166.245 53.34 165.805 53.76C165.365 54.16 165.145 54.66 165.145 55.26C165.145 55.94 165.415 56.48 165.955 56.88C166.495 57.28 167.245 57.48 168.205 57.48C169.125 57.48 169.945 57.27 170.665 56.85C171.405 56.43 171.935 55.81 172.255 54.99L172.885 57.24C172.525 58.18 171.875 58.91 170.935 59.43C170.015 59.95 168.845 60.21 167.425 60.21ZM180.645 60V43.98H184.575L191.025 55.35H189.465L196.245 43.98H199.755L199.785 60H196.395V48L196.995 48.39L190.995 58.32H189.375L183.345 48.12L184.065 47.94V60H180.645ZM204.815 60V43.98H208.745L215.195 55.35H213.635L220.415 43.98H223.925L223.955 60H220.565V48L221.165 48.39L215.165 58.32H213.545L207.515 48.12L208.235 47.94V60H204.815ZM228.985 60V43.98H232.735V54.54L241.585 43.98H245.005V60H241.255V49.44L232.435 60H228.985ZM257.339 60.21C255.659 60.21 254.159 59.86 252.839 59.16C251.539 58.44 250.519 57.46 249.779 56.22C249.039 54.98 248.669 53.57 248.669 51.99C248.669 50.39 249.039 48.98 249.779 47.76C250.519 46.52 251.539 45.55 252.839 44.85C254.159 44.15 255.659 43.8 257.339 43.8C258.899 43.8 260.269 44.12 261.449 44.76C262.649 45.38 263.559 46.3 264.179 47.52L261.299 49.2C260.819 48.44 260.229 47.88 259.529 47.52C258.849 47.16 258.109 46.98 257.309 46.98C256.389 46.98 255.559 47.18 254.819 47.58C254.079 47.98 253.499 48.56 253.079 49.32C252.659 50.06 252.449 50.95 252.449 51.99C252.449 53.03 252.659 53.93 253.079 54.69C253.499 55.43 254.079 56 254.819 56.4C255.559 56.8 256.389 57 257.309 57C258.109 57 258.849 56.82 259.529 56.46C260.229 56.1 260.819 55.54 261.299 54.78L264.179 56.46C263.559 57.66 262.649 58.59 261.449 59.25C260.269 59.89 258.899 60.21 257.339 60.21ZM270.694 60V46.26L271.564 47.16H265.054V43.98H280.054V47.16H273.574L274.444 46.26V60H270.694Z" fill="#101030"/>
<rect x="30" y="440" width="298" height="62" rx="31" fill="white"/>
<defs>
<filter id="filter0_b_1_975" x="25" y="15" width="291" height="68" filterUnits="userSpaceOnUse" color-interpolation-filters="sRGB">
<feFlood flood-opacity="0" result="BackgroundImageFix"/>
<feGaussianBlur in="BackgroundImageFix" stdDeviation="2.5"/>
<feComposite in2="SourceAlpha" operator="in" result="effect1_backgroundBlur_1_975"/>
<feBlend mode="normal" in="SourceGraphic" in2="effect1_backgroundBlur_1_975" result="shape"/>
</filter>
</defs>
</svg>
