<svg width="15" height="9" viewBox="0 0 15 9" fill="none" xmlns="http://www.w3.org/2000/svg">
<path d="M14.7125 1.74468C14.8985 1.55474 15 1.313 15 1.02809C15 0.458271 14.5603 0.00069046 14.0023 0.00069046C13.7232 0.00069046 13.4696 0.121562 13.2751 0.320134L7.49154 6.36365L1.72492 0.320134C1.53044 0.121562 1.26832 0.00069046 0.997745 0.00069046C0.439684 0.00069046 0 0.458271 0 1.02809C0 1.313 0.101466 1.55474 0.287486 1.74468L6.71364 8.46161C6.93348 8.70335 7.20406 8.81559 7.5 8.82422C7.79594 8.82422 8.04961 8.70335 8.2779 8.46161L14.7125 1.74468Z" fill="url(#paint0_linear_1_409)"/>
<defs>
<linearGradient id="paint0_linear_1_409" x1="7.67442" y1="9.54241" x2="7.67442" y2="0.000690646" gradientUnits="userSpaceOnUse">
<stop stop-color="#8333F3"/>
<stop offset="0.485532" stop-color="#5F4AF3"/>
<stop offset="1" stop-color="#3B51A8"/>
</linearGradient>
</defs>
</svg>
