<svg width="50" height="50" viewBox="0 0 50 50" fill="none" xmlns="http://www.w3.org/2000/svg">
<path d="M18.7493 47.3332C20.7284 47.3332 22.3327 45.7289 22.3327 43.7498C22.3327 41.7708 20.7284 40.1665 18.7493 40.1665C16.7703 40.1665 15.166 41.7708 15.166 43.7498C15.166 45.7289 16.7703 47.3332 18.7493 47.3332Z" stroke="white" stroke-width="3" stroke-linecap="round" stroke-linejoin="round"/>
<path d="M41.6673 47.3332C43.6463 47.3332 45.2507 45.7289 45.2507 43.7498C45.2507 41.7708 43.6463 40.1665 41.6673 40.1665C39.6883 40.1665 38.084 41.7708 38.084 43.7498C38.084 45.7289 39.6883 47.3332 41.6673 47.3332Z" stroke="white" stroke-width="3" stroke-linecap="round" stroke-linejoin="round"/>
<path d="M2.08398 2.0835H10.4173L16.0007 29.9793C16.1912 30.9385 16.713 31.8001 17.4747 32.4133C18.2365 33.0265 19.1896 33.3522 20.1673 33.3335H40.4173C41.395 33.3522 42.3482 33.0265 43.1099 32.4133C43.8717 31.8001 44.3935 30.9385 44.584 29.9793L47.9173 12.5002H12.5007" stroke="white" stroke-width="3" stroke-linecap="round" stroke-linejoin="round"/>
</svg>
