<svg width="50" height="50" viewBox="0 0 50 50" fill="none" xmlns="http://www.w3.org/2000/svg">
<path d="M25.2137 27.7859C30.1448 27.7859 34.1423 23.7884 34.1423 18.8573C34.1423 13.9262 30.1448 9.92871 25.2137 9.92871C20.2826 9.92871 16.2852 13.9262 16.2852 18.8573C16.2852 23.7884 20.2826 27.7859 25.2137 27.7859Z" stroke="white" stroke-width="3" stroke-linecap="round" stroke-linejoin="round"/>
<path d="M9.96484 41.7145C11.5586 39.0985 13.7984 36.9364 16.4692 35.4362C19.1399 33.936 22.1516 33.1479 25.2148 33.1479C28.2781 33.1479 31.2898 33.936 33.9605 35.4362C36.6312 36.9364 38.8711 39.0985 40.4648 41.7145" stroke="white" stroke-width="3" stroke-linecap="round" stroke-linejoin="round"/>
<path d="M48.5 25C48.5 37.9787 37.9787 48.5 25 48.5C12.0213 48.5 1.5 37.9787 1.5 25C1.5 12.0213 12.0213 1.5 25 1.5C37.9787 1.5 48.5 12.0213 48.5 25Z" stroke="white" stroke-width="3" stroke-linecap="round" stroke-linejoin="round"/>
</svg>
