<svg width="48" height="48" viewBox="0 0 48 48" fill="none" xmlns="http://www.w3.org/2000/svg">
<path d="M11.7769 3.92578H27.4784L39.2544 15.7019V39.254C39.2544 40.2951 38.8409 41.2935 38.1047 42.0297C37.3686 42.7658 36.3701 43.1794 35.3291 43.1794H11.7769C10.7359 43.1794 9.73742 42.7658 9.00127 42.0297C8.26513 41.2935 7.85156 40.2951 7.85156 39.254V7.85114C7.85156 6.81007 8.26513 5.81164 9.00127 5.07549C9.73742 4.33934 10.7359 3.92578 11.7769 3.92578Z" stroke="white" stroke-width="4" stroke-linecap="round" stroke-linejoin="round"/>
<path d="M27.4766 3.92578V15.7019H39.2526" stroke="white" stroke-width="4" stroke-linecap="round" stroke-linejoin="round"/>
<path d="M31.4026 25.5146H15.7012" stroke="white" stroke-width="2" stroke-linecap="round" stroke-linejoin="round"/>
<path d="M31.4026 33.3652H15.7012" stroke="white" stroke-width="2" stroke-linecap="round" stroke-linejoin="round"/>
<path d="M19.6265 17.6641H17.6639H15.7012" stroke="white" stroke-width="2" stroke-linecap="round" stroke-linejoin="round"/>
</svg>
