<svg width="48" height="41" viewBox="0 0 48 41" fill="none" xmlns="http://www.w3.org/2000/svg">
<path d="M33.6453 2.8877H5.04623C3.18802 2.8877 1.68164 4.39408 1.68164 6.25229V26.4398C1.68164 28.2981 3.18802 29.8044 5.04623 29.8044H33.6453C35.5035 29.8044 37.0099 28.2981 37.0099 26.4398V6.25229C37.0099 4.39408 35.5035 2.8877 33.6453 2.8877Z" stroke="white" stroke-width="4" stroke-linecap="round" stroke-linejoin="round"/>
<path d="M19.3457 21.3926C22.133 21.3926 24.3926 19.133 24.3926 16.3457C24.3926 13.5584 22.133 11.2988 19.3457 11.2988C16.5584 11.2988 14.2988 13.5584 14.2988 16.3457C14.2988 19.133 16.5584 21.3926 19.3457 21.3926Z" stroke="white" stroke-width="4" stroke-linecap="round" stroke-linejoin="round"/>
<path d="M11.7754 38.2159H42.0567C42.9491 38.2159 43.8049 37.8614 44.4359 37.2304C45.0668 36.5994 45.4213 35.7436 45.4213 34.8513V18.0283" stroke="white" stroke-width="4" stroke-linecap="round" stroke-linejoin="round"/>
</svg>
