<svg width="26" height="27" viewBox="0 0 26 27" fill="none" xmlns="http://www.w3.org/2000/svg">
<path d="M18.7745 6.41991C18.5194 6.41991 18.2701 6.4955 18.058 6.63713C17.8459 6.77875 17.6806 6.98005 17.583 7.21556C17.4854 7.45108 17.4599 7.71023 17.5096 7.96025C17.5594 8.21027 17.6822 8.43993 17.8626 8.62018C18.0429 8.80043 18.2727 8.92319 18.5229 8.97292C18.773 9.02265 19.0323 8.99713 19.268 8.89958C19.5036 8.80202 19.705 8.63682 19.8467 8.42487C19.9884 8.21291 20.0641 7.96372 20.0641 7.7088C20.0641 7.36696 19.9282 7.03913 19.6863 6.79742C19.4445 6.5557 19.1165 6.41991 18.7745 6.41991ZM23.7179 9.01917C23.697 8.12801 23.53 7.2463 23.2236 6.40917C22.9503 5.6929 22.525 5.04432 21.977 4.50806C21.4448 3.95752 20.7943 3.53514 20.0748 3.27287C19.2394 2.95727 18.3562 2.78654 17.4634 2.76806C16.3242 2.70361 15.9588 2.70361 13.0357 2.70361C10.1126 2.70361 9.74725 2.70361 8.6081 2.76806C7.71522 2.78654 6.83205 2.95727 5.99666 3.27287C5.27844 3.53779 4.62854 3.95981 4.0945 4.50806C3.54366 5.03992 3.12104 5.69001 2.85864 6.40917C2.54286 7.24409 2.37204 8.12678 2.35354 9.01917C2.28906 10.1577 2.28906 10.5229 2.28906 13.4444C2.28906 16.3658 2.28906 16.731 2.35354 17.8695C2.37204 18.7619 2.54286 19.6446 2.85864 20.4795C3.12104 21.1987 3.54366 21.8488 4.0945 22.3806C4.62854 22.9289 5.27844 23.3509 5.99666 23.6158C6.83205 23.9314 7.71522 24.1022 8.6081 24.1206C9.74725 24.1851 10.1126 24.1851 13.0357 24.1851C15.9588 24.1851 16.3242 24.1851 17.4634 24.1206C18.3562 24.1022 19.2394 23.9314 20.0748 23.6158C20.7943 23.3536 21.4448 22.9312 21.977 22.3806C22.5274 21.8464 22.9531 21.1972 23.2236 20.4795C23.53 19.6424 23.697 18.7607 23.7179 17.8695C23.7179 16.731 23.7824 16.3658 23.7824 13.4444C23.7824 10.5229 23.7824 10.1577 23.7179 9.01917ZM21.7835 17.7407C21.7757 18.4224 21.6521 19.098 21.4181 19.7384C21.2465 20.2059 20.9709 20.6282 20.6121 20.9736C20.2636 21.3286 19.8418 21.6035 19.3763 21.7792C18.7354 22.0131 18.0596 22.1365 17.3774 22.1444C16.3027 22.1981 15.9051 22.2088 13.0787 22.2088C10.2523 22.2088 9.85472 22.2088 8.78005 22.1444C8.07173 22.1576 7.36643 22.0486 6.6952 21.8221C6.25005 21.6375 5.84767 21.3633 5.51306 21.0166C5.15637 20.6715 4.88421 20.2488 4.71781 19.7814C4.45544 19.1317 4.30991 18.4409 4.28794 17.7407C4.28794 16.6666 4.22346 16.2692 4.22346 13.4444C4.22346 10.6195 4.22346 10.2221 4.28794 9.14806C4.29276 8.45104 4.42007 7.76029 4.66408 7.10732C4.85327 6.65396 5.14366 6.24984 5.51306 5.92584C5.83956 5.55653 6.24307 5.26323 6.6952 5.06658C7.35026 4.83033 8.04068 4.70685 8.73706 4.70139C9.81173 4.70139 10.2094 4.63695 13.0357 4.63695C15.8621 4.63695 16.2597 4.63695 17.3344 4.70139C18.0166 4.70921 18.6925 4.83269 19.3333 5.06658C19.8216 5.24772 20.26 5.54223 20.6121 5.92584C20.9643 6.25577 21.2395 6.65914 21.4181 7.10732C21.657 7.76136 21.7806 8.45182 21.7835 9.14806C21.8372 10.2221 21.848 10.6195 21.848 13.4444C21.848 16.2692 21.8372 16.6666 21.7835 17.7407ZM13.0357 7.93435C11.9458 7.93648 10.881 8.26144 9.97578 8.86817C9.07058 9.47491 8.36563 10.3362 7.95001 11.3432C7.53439 12.3502 7.42675 13.4577 7.64068 14.5259C7.85462 15.594 8.38053 16.5748 9.15197 17.3443C9.9234 18.1138 10.9058 18.6375 11.9749 18.8493C13.044 19.061 14.1519 18.9512 15.1587 18.5339C16.1655 18.1165 17.0258 17.4103 17.6311 16.5044C18.2365 15.5985 18.5595 14.5337 18.5595 13.4444C18.5609 12.7195 18.419 12.0014 18.1417 11.3316C17.8645 10.6618 17.4575 10.0533 16.9442 9.54122C16.4308 9.02915 15.8212 8.62356 15.1505 8.3478C14.4797 8.07203 13.761 7.93152 13.0357 7.93435ZM13.0357 17.021C12.3279 17.021 11.636 16.8113 11.0475 16.4182C10.459 16.0252 10.0004 15.4666 9.7295 14.8131C9.45864 14.1595 9.38777 13.4404 9.52585 12.7466C9.66393 12.0528 10.0048 11.4155 10.5052 10.9153C11.0057 10.4151 11.6434 10.0744 12.3376 9.93641C13.0318 9.79841 13.7513 9.86924 14.4052 10.1399C15.0591 10.4107 15.618 10.8691 16.0113 11.4573C16.4045 12.0454 16.6144 12.737 16.6144 13.4444C16.6144 13.914 16.5218 14.3791 16.342 14.8131C16.1621 15.247 15.8985 15.6413 15.5662 15.9734C15.2339 16.3056 14.8394 16.569 14.4052 16.7488C13.971 16.9285 13.5057 17.021 13.0357 17.021Z" fill="#878797"/>
</svg>
