<svg width="24" height="24" viewBox="0 0 24 24" fill="none" xmlns="http://www.w3.org/2000/svg">
<path d="M21.9994 19.9201V16.9201C22.0116 16.4297 21.8431 15.9519 21.526 15.5776C21.2088 15.2033 20.7652 14.9586 20.2794 14.8901C19.3194 14.7635 18.3767 14.5286 17.4694 14.1901C17.1115 14.0556 16.7225 14.0264 16.3486 14.1062C15.9746 14.1859 15.6313 14.3712 15.3594 14.6401L14.0894 15.9101C11.5859 14.4865 9.513 12.4136 8.08945 9.9101L9.35944 8.6401C9.62831 8.36821 9.8136 8.02494 9.89335 7.65098C9.97311 7.27701 9.94399 6.88802 9.80945 6.5301C9.47089 5.62282 9.23607 4.68016 9.10944 3.7201C9.04152 3.23954 8.80118 2.80008 8.43321 2.48363C8.06524 2.16718 7.59475 1.99532 7.10945 2.0001H4.10945C3.83179 2.00036 3.55722 2.05843 3.30324 2.17062C3.04925 2.28281 2.82141 2.44665 2.63421 2.65172C2.44702 2.85679 2.30457 3.09859 2.21595 3.36172C2.12732 3.62486 2.09446 3.90356 2.11944 4.1801C2.44769 7.27109 3.49942 10.2413 5.18945 12.8501C6.72478 15.2663 8.77327 17.3148 11.1894 18.8501C13.7864 20.5342 16.7423 21.5857 19.8194 21.9201C20.0968 21.9452 20.3764 21.912 20.6402 21.8228C20.904 21.7336 21.1463 21.5902 21.3515 21.402C21.5567 21.2137 21.7204 20.9846 21.832 20.7294C21.9435 20.4743 22.0006 20.1986 21.9994 19.9201Z" stroke="white" stroke-width="2" stroke-linecap="round" stroke-linejoin="round"/>
</svg>
