<svg width="27" height="27" viewBox="0 0 27 27" fill="none" xmlns="http://www.w3.org/2000/svg">
<path d="M21.5642 3.77439C21.3054 3.7932 21.0515 3.85387 20.8122 3.95403H20.809C20.5793 4.04505 19.4871 4.50422 17.8268 5.20022L11.8769 7.70469C7.60749 9.50108 3.41065 11.2701 3.41065 11.2701L3.46062 11.2507C3.46062 11.2507 3.17126 11.3458 2.86901 11.5528C2.68229 11.6716 2.52161 11.827 2.3967 12.0096C2.24839 12.2271 2.12911 12.5598 2.17344 12.9037C2.24598 13.4854 2.62318 13.8342 2.894 14.0267C3.16804 14.2216 3.42918 14.3127 3.42918 14.3127H3.43563L7.37133 15.6378C7.54784 16.2041 8.57066 19.5649 8.81649 20.339C8.96157 20.8014 9.10262 21.0906 9.27913 21.3113C9.36457 21.4241 9.46451 21.5184 9.58461 21.5941C9.64704 21.6304 9.71361 21.659 9.78288 21.6795L9.74258 21.6698C9.75467 21.673 9.76434 21.6827 9.77321 21.6859C9.80545 21.6948 9.82721 21.698 9.86832 21.7044C10.4914 21.8929 10.9919 21.5063 10.9919 21.5063L11.0201 21.4837L13.3438 19.3691L17.2384 22.3553L17.327 22.3932C18.1387 22.7492 18.9608 22.5511 19.3952 22.2015C19.8329 21.8494 20.003 21.3991 20.003 21.3991L20.0312 21.3266L23.0408 5.91716C23.1262 5.53694 23.148 5.18089 23.0537 4.8353C22.9564 4.48555 22.7319 4.18474 22.4242 3.99189C22.1658 3.8349 21.8662 3.75912 21.5642 3.77439ZM21.4828 5.42578C21.4796 5.47653 21.4892 5.47089 21.4667 5.56836V5.57722L18.4853 20.8264C18.4724 20.8481 18.4506 20.8957 18.391 20.9432C18.3281 20.9931 18.2781 21.0246 18.0162 20.9206L13.2527 17.2707L10.3753 19.8919L10.9798 16.0333L18.7625 8.78333C19.0833 8.48528 18.9761 8.42244 18.9761 8.42244C18.9987 8.05672 18.4917 8.3153 18.4917 8.3153L8.67786 14.3916L8.67463 14.3755L3.97082 12.7926V12.7894L3.95873 12.7869C3.96697 12.7842 3.97505 12.781 3.98291 12.7773L4.0087 12.7644L4.03368 12.7555C4.03368 12.7555 8.23375 10.9865 12.5031 9.19014C14.6406 8.29033 16.7943 7.38408 18.4506 6.68486C19.4329 6.27161 20.4162 5.86078 21.4006 5.45236C21.4667 5.42658 21.4352 5.42578 21.4828 5.42578Z" fill="#878797"/>
</svg>
