<svg width="27" height="27" viewBox="0 0 27 27" fill="none" xmlns="http://www.w3.org/2000/svg">
<g clip-path="url(#clip0_24_42743)">
<path fill-rule="evenodd" clip-rule="evenodd" d="M25.8761 18.6704C25.2915 17.4937 24.5211 16.4187 23.5946 15.4868C23.2847 15.1368 22.9602 14.8 22.622 14.4772L22.5812 14.4374C22.4556 14.3156 22.3316 14.192 22.2093 14.0669C23.4759 12.3066 24.5598 10.4219 25.4441 8.44196L25.4795 8.36247L25.5043 8.2787C25.6214 7.88881 25.7547 7.1477 25.2818 6.47747C24.7918 5.78577 24.0083 5.66118 23.4828 5.66118H21.068C20.5624 5.63815 20.0625 5.77557 19.6397 6.05376C19.217 6.33196 18.8931 6.73667 18.7145 7.20999C18.1948 8.44694 17.5442 9.62475 16.7737 10.7233V7.89525C16.7737 7.53007 16.7393 6.91784 16.347 6.40229C15.8785 5.78362 15.2004 5.66118 14.7297 5.66118H10.8974C10.3973 5.64968 9.91198 5.83084 9.54188 6.16715C9.17178 6.50345 8.94527 6.96914 8.90926 7.46777L8.90603 7.5161V7.56444C8.90603 8.08536 9.11237 8.46988 9.27787 8.71155C9.35202 8.82003 9.43047 8.91884 9.48098 8.98114L9.49173 8.9951C9.54546 9.0617 9.58092 9.10573 9.61639 9.15514C9.71096 9.28188 9.84529 9.47951 9.88398 9.98862V11.5707C9.11471 10.2833 8.48394 8.91803 8.00224 7.49784L7.99364 7.47422L7.98504 7.45166C7.85393 7.10903 7.64437 6.61066 7.22418 6.23044C6.73413 5.7847 6.15381 5.66118 5.62615 5.66118H3.17591C2.6418 5.66118 1.99808 5.78577 1.5177 6.29166C1.04592 6.79003 0.992188 7.38722 0.992188 7.70299V7.84692L1.02228 7.98655C1.70072 11.1344 3.09879 14.0827 5.10709 16.6006C6.02526 18.0477 7.27177 19.2582 8.74553 20.1338C10.2193 21.0094 11.8788 21.5254 13.5894 21.6402L13.6335 21.6434H13.6786C14.4588 21.6434 15.2724 21.5757 15.8838 21.1687C16.7081 20.6187 16.7737 19.7756 16.7737 19.3546V18.1323C16.9854 18.3041 17.2476 18.534 17.5689 18.8433C17.9579 19.2321 18.2675 19.5694 18.5329 19.8637L18.6748 20.0205C18.8811 20.2503 19.0842 20.477 19.269 20.6628C19.5012 20.8958 19.7881 21.1526 20.147 21.3427C20.5371 21.5478 20.9466 21.6413 21.3808 21.6413H23.8321C24.349 21.6413 25.0894 21.5188 25.6107 20.9152C26.1781 20.2578 26.1351 19.4512 25.9567 18.8723L25.9245 18.7681L25.8761 18.6704ZM19.729 18.7842C19.3959 18.4121 19.053 18.0489 18.7005 17.6951L18.6973 17.6919C17.239 16.287 16.5587 16.0432 16.0773 16.0432C15.8204 16.0432 15.5378 16.0711 15.354 16.301C15.2713 16.4106 15.217 16.539 15.1961 16.6747C15.1701 16.8323 15.1586 16.9919 15.1617 17.1516V19.3546C15.1617 19.6284 15.1165 19.7434 14.9897 19.8271C14.821 19.9399 14.461 20.0312 13.6883 20.0312C12.2205 19.9314 10.7974 19.4848 9.53598 18.7282C8.27453 17.9716 7.21077 16.9266 6.43215 15.6791L6.42355 15.6651L6.41281 15.6522C4.54194 13.3249 3.23807 10.5947 2.60419 7.67722C2.60849 7.53759 2.63858 7.45273 2.68801 7.40118C2.73852 7.34747 2.86211 7.27229 3.17591 7.27229H5.62615C5.89804 7.27229 6.0399 7.33244 6.14199 7.42373C6.2559 7.52899 6.35692 7.70622 6.47729 8.02199C7.0791 9.78992 7.89155 11.444 8.66208 12.6588C9.04681 13.2667 9.4251 13.7726 9.76684 14.1303C9.93771 14.3085 10.1043 14.4568 10.2644 14.562C10.4181 14.663 10.5933 14.7435 10.7738 14.7435C10.8684 14.7435 10.9791 14.7328 11.0855 14.6866C11.2004 14.6359 11.2949 14.5482 11.3541 14.4374C11.4648 14.2355 11.496 13.938 11.496 13.5481V9.92525C11.439 9.04666 11.1736 8.55151 10.9157 8.20029C10.8634 8.13004 10.8097 8.06092 10.7545 7.99299L10.7405 7.97581C10.6947 7.92018 10.6509 7.86285 10.6094 7.80396C10.5565 7.73827 10.5246 7.65816 10.518 7.5741C10.5265 7.48875 10.5672 7.40985 10.6319 7.35355C10.6967 7.29724 10.7805 7.26779 10.8662 7.27122H14.7297C14.951 7.27122 15.0252 7.32492 15.0628 7.3754C15.1165 7.44522 15.1617 7.59022 15.1617 7.89525V12.7587C15.1617 13.3365 15.4282 13.7275 15.8151 13.7275C16.26 13.7275 16.5813 13.4579 17.1423 12.8972L17.1519 12.8865L17.1605 12.8768C18.419 11.3433 19.4471 9.6348 20.2126 7.80503L20.2169 7.79214C20.2744 7.63048 20.3833 7.49206 20.5269 7.398C20.6705 7.30395 20.8409 7.25942 21.0122 7.27122H23.4839C23.8192 7.27122 23.9288 7.35714 23.9653 7.40762C24.003 7.46133 24.0298 7.57625 23.9653 7.80181C23.0826 9.77419 21.9913 11.6466 20.7102 13.387L20.7016 13.3999C20.578 13.59 20.4415 13.8005 20.4222 14.0411C20.4007 14.301 20.5124 14.5363 20.7091 14.7897C20.852 15.0003 21.1476 15.2892 21.4474 15.5824L21.4753 15.6103C21.7891 15.9175 22.1298 16.2505 22.4028 16.5727L22.4103 16.5802L22.4178 16.5888C23.2318 17.4003 23.9087 18.3383 24.4221 19.3664C24.5037 19.6456 24.4543 19.7895 24.3898 19.8637C24.3157 19.9496 24.1491 20.0301 23.8332 20.0301H21.3808C21.2136 20.0342 21.0482 19.9954 20.9004 19.9174C20.7192 19.812 20.5548 19.6803 20.4125 19.5264C20.2588 19.3728 20.0922 19.187 19.8881 18.9604L19.7301 18.7842H19.729Z" fill="#878797"/>
</g>
<defs>
<clipPath id="clip0_24_42743">
<rect width="25.792" height="25.7778" fill="white" transform="translate(0.726562 0.555664)"/>
</clipPath>
</defs>
</svg>
