<svg width="426" height="260" viewBox="0 0 426 260" fill="none" xmlns="http://www.w3.org/2000/svg">
<path fill-rule="evenodd" clip-rule="evenodd" d="M426 50C426 22.3858 403.614 0 376 0H50C22.3858 0 0 22.3858 0 50V210C0 237.614 22.3857 260 50 260H321.549C335.339 260 345 240.075 345 226.286C345 200.052 366.266 178.786 392.5 178.786C406.254 178.786 426 169.178 426 155.424V50ZM426 259.988C426 259.978 425.988 259.973 425.98 259.98C425.973 259.987 425.978 260 425.988 260C425.995 260 426 259.995 426 259.988Z" fill="white"/>
</svg>
