<svg width="417.000000" height="162.000000" viewBox="0 0 417 162" fill="none" xmlns="http://www.w3.org/2000/svg" xmlns:xlink="http://www.w3.org/1999/xlink">
	<desc>
			Created with Pixso.
	</desc>
	<defs>
		<filter id="filter_1_2541_dd" x="-4.000000" y="0.000000" width="425.000000" height="170.000000" filterUnits="userSpaceOnUse" color-interpolation-filters="sRGB">
			<feFlood flood-opacity="0" result="BackgroundImageFix"/>
			<feGaussianBlur in="BackgroundImage" stdDeviation="6.66667"/>
			<feComposite in2="SourceAlpha" operator="in" result="effect_backgroundBlur_1"/>
			<feColorMatrix in="SourceAlpha" type="matrix" values="0 0 0 0 0 0 0 0 0 0 0 0 0 0 0 0 0 0 127 0" result="hardAlpha"/>
			<feOffset dx="0" dy="4"/>
			<feGaussianBlur stdDeviation="1.33333"/>
			<feComposite in2="hardAlpha" operator="out" k2="-1" k3="1"/>
			<feColorMatrix type="matrix" values="0 0 0 0 0 0 0 0 0 0 0 0 0 0 0 0 0 0 0.25 0"/>
			<feBlend mode="normal" in2="effect_backgroundBlur_1" result="effect_dropShadow_2"/>
			<feBlend mode="normal" in="SourceGraphic" in2="effect_dropShadow_2" result="shape"/>
		</filter>
	</defs>
	<path id="Subtract" d="M392 0L25 0C11.1929 0 0 11.1934 0 25L0 137C0 150.807 11.1929 162 25 162L333.287 162C344.488 162 353.373 142.701 353.373 131.5C353.373 110.789 369.808 94 390.081 94C400.8 94 417 86.3721 417 75.6523L417 25C417 11.1934 405.807 0 392 0ZM417 160.43C417 159.217 415.472 158.609 414.578 159.429C413.632 160.295 414.217 162 415.499 162L415.63 162C416.387 162 417 161.387 417 160.631L417 160.43Z" clip-rule="evenodd" fill="#1F203F" fill-opacity="1.000000" fill-rule="evenodd"/>
</svg>
